<mxfile host="app.diagrams.net" modified="2024-05-27T05:45:19.086Z" agent="Mozilla/5.0 (Macintosh; Intel Mac OS X 10_15_7) AppleWebKit/537.36 (KHTML, like Gecko) Chrome/125.0.0.0 Safari/537.36" etag="zpZPU-xKuM9alIJgGM8f" version="24.4.4" type="github">
  <diagram name="第 1 页" id="oehu3PluOj4CI8i6IwNQ">
    <mxGraphModel dx="1194" dy="765" grid="1" gridSize="10" guides="1" tooltips="1" connect="1" arrows="1" fold="1" page="1" pageScale="1" pageWidth="827" pageHeight="1169" math="0" shadow="0">
      <root>
        <mxCell id="0" />
        <mxCell id="1" parent="0" />
        <mxCell id="i_wJAvA_AS-A34rhZKak-19" value="" style="rounded=1;whiteSpace=wrap;html=1;fillColor=#d5e8d4;gradientColor=#97d077;strokeColor=#82b366;glass=0;shadow=1;perimeter=rhombusPerimeter;imageWidth=24;fillOpacity=100;noLabel=0;" vertex="1" parent="1">
          <mxGeometry x="10" y="20" width="940" height="450" as="geometry" />
        </mxCell>
        <mxCell id="i_wJAvA_AS-A34rhZKak-3" value="Spring Boot Actuator" style="rounded=0;whiteSpace=wrap;html=1;fillColor=#fff2cc;strokeColor=#d6b656;strokeWidth=2;" vertex="1" parent="1">
          <mxGeometry x="785" y="70" width="120" height="60" as="geometry" />
        </mxCell>
        <mxCell id="i_wJAvA_AS-A34rhZKak-36" style="rounded=0;orthogonalLoop=1;jettySize=auto;html=1;entryX=1;entryY=0.25;entryDx=0;entryDy=0;strokeWidth=2;" edge="1" parent="1" source="i_wJAvA_AS-A34rhZKak-4" target="i_wJAvA_AS-A34rhZKak-24">
          <mxGeometry relative="1" as="geometry" />
        </mxCell>
        <mxCell id="i_wJAvA_AS-A34rhZKak-4" value="Micrometer" style="rounded=0;whiteSpace=wrap;html=1;fillColor=#ffcd28;strokeColor=#d79b00;gradientColor=#ffa500;strokeWidth=2;" vertex="1" parent="1">
          <mxGeometry x="785" y="221" width="120" height="60" as="geometry" />
        </mxCell>
        <mxCell id="i_wJAvA_AS-A34rhZKak-5" value="Prometheus Client Library" style="rounded=0;whiteSpace=wrap;html=1;fillColor=#fad7ac;strokeColor=#b46504;strokeWidth=2;" vertex="1" parent="1">
          <mxGeometry x="785" y="365" width="120" height="60" as="geometry" />
        </mxCell>
        <mxCell id="i_wJAvA_AS-A34rhZKak-18" style="edgeStyle=orthogonalEdgeStyle;rounded=0;orthogonalLoop=1;jettySize=auto;html=1;entryX=1;entryY=0.25;entryDx=0;entryDy=0;strokeWidth=2;" edge="1" parent="1" source="i_wJAvA_AS-A34rhZKak-3" target="i_wJAvA_AS-A34rhZKak-22">
          <mxGeometry relative="1" as="geometry">
            <mxPoint x="595" y="90" as="targetPoint" />
          </mxGeometry>
        </mxCell>
        <mxCell id="i_wJAvA_AS-A34rhZKak-16" style="edgeStyle=orthogonalEdgeStyle;rounded=0;orthogonalLoop=1;jettySize=auto;html=1;entryX=1;entryY=0.5;entryDx=0;entryDy=0;strokeWidth=2;" edge="1" parent="1" source="i_wJAvA_AS-A34rhZKak-5" target="i_wJAvA_AS-A34rhZKak-25">
          <mxGeometry relative="1" as="geometry">
            <mxPoint x="435" y="300" as="targetPoint" />
          </mxGeometry>
        </mxCell>
        <mxCell id="i_wJAvA_AS-A34rhZKak-39" style="rounded=0;orthogonalLoop=1;jettySize=auto;html=1;entryX=0;entryY=0.5;entryDx=0;entryDy=0;" edge="1" parent="1" source="i_wJAvA_AS-A34rhZKak-37" target="i_wJAvA_AS-A34rhZKak-22">
          <mxGeometry relative="1" as="geometry" />
        </mxCell>
        <mxCell id="i_wJAvA_AS-A34rhZKak-40" value="request" style="edgeLabel;html=1;align=center;verticalAlign=middle;resizable=0;points=[];" vertex="1" connectable="0" parent="i_wJAvA_AS-A34rhZKak-39">
          <mxGeometry x="-0.183" y="-1" relative="1" as="geometry">
            <mxPoint as="offset" />
          </mxGeometry>
        </mxCell>
        <mxCell id="i_wJAvA_AS-A34rhZKak-37" value="Collector" style="rounded=1;whiteSpace=wrap;html=1;strokeWidth=2;" vertex="1" parent="1">
          <mxGeometry x="20" y="115" width="150" height="310" as="geometry" />
        </mxCell>
        <mxCell id="i_wJAvA_AS-A34rhZKak-38" value="" style="group" vertex="1" connectable="0" parent="1">
          <mxGeometry x="290" y="120" width="710" height="570" as="geometry" />
        </mxCell>
        <mxCell id="i_wJAvA_AS-A34rhZKak-33" value="" style="group" vertex="1" connectable="0" parent="i_wJAvA_AS-A34rhZKak-38">
          <mxGeometry width="710" height="390" as="geometry" />
        </mxCell>
        <mxCell id="i_wJAvA_AS-A34rhZKak-22" value="" style="rounded=0;whiteSpace=wrap;html=1;strokeWidth=4;" vertex="1" parent="i_wJAvA_AS-A34rhZKak-33">
          <mxGeometry width="325" height="305" as="geometry" />
        </mxCell>
        <mxCell id="i_wJAvA_AS-A34rhZKak-23" value="&lt;font style=&quot;font-size: 14px;&quot;&gt;Spring Boot Actuator&lt;/font&gt;" style="text;html=1;align=center;verticalAlign=middle;resizable=0;points=[];autosize=1;strokeColor=none;fillColor=none;" vertex="1" parent="i_wJAvA_AS-A34rhZKak-33">
          <mxGeometry x="74.59016393442623" y="20" width="150" height="30" as="geometry" />
        </mxCell>
        <mxCell id="i_wJAvA_AS-A34rhZKak-32" value="" style="group" vertex="1" connectable="0" parent="i_wJAvA_AS-A34rhZKak-38">
          <mxGeometry x="12.049999999999955" y="80" width="667.95" height="490" as="geometry" />
        </mxCell>
        <mxCell id="i_wJAvA_AS-A34rhZKak-24" value="" style="rounded=0;whiteSpace=wrap;html=1;strokeWidth=4;" vertex="1" parent="i_wJAvA_AS-A34rhZKak-32">
          <mxGeometry width="280.91" height="210" as="geometry" />
        </mxCell>
        <mxCell id="i_wJAvA_AS-A34rhZKak-31" value="&lt;font style=&quot;font-size: 14px;&quot;&gt;Micrometer&lt;/font&gt;" style="text;html=1;align=center;verticalAlign=middle;resizable=0;points=[];autosize=1;strokeColor=none;fillColor=none;" vertex="1" parent="i_wJAvA_AS-A34rhZKak-32">
          <mxGeometry x="70.91" y="20" width="90" height="30" as="geometry" />
        </mxCell>
        <mxCell id="i_wJAvA_AS-A34rhZKak-28" value="" style="group" vertex="1" connectable="0" parent="i_wJAvA_AS-A34rhZKak-38">
          <mxGeometry x="25" y="161" width="240" height="98" as="geometry" />
        </mxCell>
        <mxCell id="i_wJAvA_AS-A34rhZKak-25" value="" style="rounded=0;whiteSpace=wrap;html=1;strokeWidth=4;" vertex="1" parent="i_wJAvA_AS-A34rhZKak-28">
          <mxGeometry width="239.99999999999997" height="98" as="geometry" />
        </mxCell>
        <mxCell id="i_wJAvA_AS-A34rhZKak-27" value="&lt;font style=&quot;font-size: 14px;&quot;&gt;Prometheus Client Library&lt;/font&gt;" style="text;html=1;align=center;verticalAlign=middle;whiteSpace=wrap;rounded=0;strokeWidth=4;" vertex="1" parent="i_wJAvA_AS-A34rhZKak-28">
          <mxGeometry x="21.818181818181813" y="29" width="207.27272727272725" height="40" as="geometry" />
        </mxCell>
      </root>
    </mxGraphModel>
  </diagram>
</mxfile>
